# xmcd
#
# Track frame offsets:
#	150
#	12225
#	26400
#	40586
#	53344
#	67368
#	79961
#	92440
#	109028
#	121459
#	137292
#	147385
#	158854
#	173904
#	187029
#	203644
#	218019
#	236310
#	248160
#	262652
#
# Disc length: 3678 seconds
#
# Revision: 0
# Processed by: cddbd v1.5.1PL0 Copyright (c) Steve Scherf et al.
# Submitted via: dBpowerAMP V4.0
#
DISCID=040e5c14
DTITLE=Pedro Bento E Zé Da Estrada - 20 mais de Pedro Bento E Zé Da Estrada
DYEAR=1900
DGENRE=Country
TTITLE0=Dama de Vermelho
TTITLE1=Seresteiro da Lua
TTITLE2=O amor e a rosa
TTITLE3=Boneca Cobiçada
TTITLE4=Taça da dor
TTITLE5=Ladrão de beijos
TTITLE6=João de barro
TTITLE7=Mágoa de boiadeiro
TTITLE8=Serenata do amor
TTITLE9=Flor da lama
TTITLE10=Ternura dos teus beijos
TTITLE11=Ânsia de amor
TTITLE12=Ébrio de amor
TTITLE13=Que bonito é o armor
TTITLE14=Cavalo baio
TTITLE15=Recordação
TTITLE16=Os três boiadeiros
TTITLE17=Contra o vento
TTITLE18=Galopeira
TTITLE19=Romper da aurora
EXTD=
EXTT0=
EXTT1=
EXTT2=
EXTT3=
EXTT4=
EXTT5=
EXTT6=
EXTT7=
EXTT8=
EXTT9=
EXTT10=
EXTT11=
EXTT12=
EXTT13=
EXTT14=
EXTT15=
EXTT16=
EXTT17=
EXTT18=
EXTT19=
PLAYORDER=
